<?xml version="1.0" encoding="utf-8"?>
<!DOCTYPE svg PUBLIC "-//W3C//DTD SVG 1.0//EN" "http://www.w3.org/TR/2001/REC-SVG-20010904/DTD/svg10.dtd">
<svg version="1.0" xmlns="http://www.w3.org/2000/svg" width="1024px" height="1024px" viewBox="0 0 1024 1024" preserveAspectRatio="xMidYMid meet">
 <g fill="#fdfcfb">
  <path d="M0 512 l0 -512 512 0 512 0 0 512 0 512 -512 0 -512 0 0 -512z m297.30 153.90 c2.45 -1.50 6.95 -4.25 9.95 -6.10 6.10 -3.80 16.55 -10.20 22.95 -14.05 7.95 -4.80 16.15 -9.85 28.55 -17.45 3.05 -1.90 12.50 -7.70 21 -12.90 8.55 -5.25 20.45 -12.55 26.50 -16.30 6.05 -3.75 13.95 -8.55 17.50 -10.75 3.60 -2.15 7.25 -4.50 8.20 -5.25 4.10 -3.10 6.80 -6.80 8.70 -12 l1.10 -2.85 0 -80.50 0 -80.50 -1.45 -2.90 c-1.55 -3 -5.70 -7.35 -7.05 -7.35 -1.50 0 -4.20 1.60 -47.25 28 -12.70 7.80 -40 24.45 -61 37.25 -26.80 16.25 -27.10 16.50 -29.60 19.15 -1.25 1.35 -2.80 3.40 -3.40 4.60 -2.60 5.15 -2.50 0.15 -2.50 95.40 l0 88.60 1.65 -0.70 c0.90 -0.35 3.65 -1.90 6.15 -3.40z m-23.85 -168.15 c-1.30 -3.50 -4.90 -7.45 -9 -9.90 -2.85 -1.65 -3.20 -1.75 -3.55 -1 -0.15 0.50 -0.35 6.70 -0.35 13.80 l-0.05 12.85 -6.25 0 c-12.25 0 -31.60 -2.60 -44.90 -6 -18.55 -4.75 -33.65 -12 -43.25 -20.75 -5.90 -5.40 -10 -11.90 -11.05 -17.50 -0.70 -3.75 -0.70 -36.25 -0.05 -41 0.60 -4.15 3.10 -9.45 6.05 -12.85 3.05 -3.60 3.80 -3.45 13.90 2.55 8.95 5.30 22.10 13 34.55 20.20 4.25 2.45 9.10 5.30 10.75 6.30 1.70 1 3.50 2.05 4 2.35 0.60 0.30 1.05 1.20 1.15 2.10 0.15 1.20 -0.75 2.85 -4.40 8.30 -2.50 3.75 -4.65 7.10 -4.80 7.45 -0.20 0.55 2.45 0.80 13.15 1.30 7.35 0.30 17.10 0.80 21.65 1.05 4.55 0.25 12 0.60 16.60 0.80 l8.35 0.35 -2.80 -8.45 c-1.50 -4.65 -2.95 -8.90 -3.15 -9.45 -0.75 -1.65 -9.20 -27.95 -11.10 -34.35 l-0.55 -1.85 -1.30 0.95 c-0.70 0.50 -3.05 2.65 -5.20 4.70 -3 2.95 -4.20 3.80 -5.35 3.80 -1.70 0 -3.45 -0.95 -27.60 -15.40 l-18.90 -11.25 0 -1.85 c0 -1.75 0.20 -2.05 2.15 -3.10 1.80 -1.05 22.60 -13.60 64.55 -38.95 l9.50 -5.70 6.25 0 c7.20 0.05 5.80 -0.50 17.20 6.35 24.65 14.70 52 31 60.75 36.15 6.55 3.85 6.60 3.90 6.60 5.70 -0.05 1.75 -0.20 1.90 -5.15 4.85 -2.80 1.65 -10.25 6.20 -16.60 10.05 -6.30 3.85 -20.05 12.10 -30.50 18.40 -10.45 6.25 -19.50 11.85 -20.10 12.40 -0.60 0.55 -1.50 2 -1.95 3.20 -0.70 1.80 -0.75 2.50 -0.25 4.10 0.75 2.55 3.80 5.65 6.45 6.50 3 1 3.95 0.60 15.85 -6.70 5.50 -3.35 13.60 -8.30 18 -11 12.55 -7.65 20.30 -12.40 29.50 -18 4.70 -2.90 12.80 -7.85 18 -11.05 5.25 -3.15 13.35 -8.15 18 -11 4.70 -2.85 10.80 -6.60 13.65 -8.30 2.85 -1.70 5.25 -3.25 5.40 -3.45 0.10 -0.20 -1.40 -1.35 -3.40 -2.50 -2 -1.15 -4.65 -2.70 -5.90 -3.45 -2.80 -1.70 -25.85 -15.35 -39.75 -23.50 -5.75 -3.40 -14.55 -8.60 -19.50 -11.50 -4.95 -2.95 -14.05 -8.35 -20.25 -12 -6.20 -3.65 -16.45 -9.75 -22.85 -13.55 -15 -8.95 -16.50 -9.60 -22.65 -9.60 -7.35 0 -1.90 -2.90 -59.75 31.90 -36.65 22.05 -67.50 40.55 -79 47.40 -11.55 6.80 -14.95 10.50 -16.95 18.20 -0.70 2.70 -0.80 11.65 -0.80 81.20 0 84.80 -0.15 80.35 2.75 86.20 1.65 3.45 4.65 6.75 8.45 9.45 1.65 1.20 9 5.75 16.30 10.15 7.30 4.40 18 10.85 23.75 14.40 10.85 6.60 27.45 16.70 58.25 35.35 20.40 12.35 26.30 15.90 33.25 20.15 l5 3.05 0.15 -83.10 c0.10 -83.05 0.10 -83.15 -0.95 -85.95z m396 149.20 c6.75 -2.15 10.05 -4.05 14.55 -8.30 2.30 -2.20 3.05 -2.65 4.65 -2.65 l1.85 0 0 4.75 0 4.75 10.50 0 10.50 0 0 -44.95 0 -44.95 -3.60 -0.35 c-2 -0.15 -6.90 -0.25 -10.90 -0.15 l-7.25 0.15 -0.30 29.25 c-0.15 18.10 -0.45 29.95 -0.80 31.05 -1.70 5.90 -4.70 9.90 -9.15 12.25 -2.55 1.35 -3.20 1.45 -9.25 1.60 -6.80 0.20 -9.20 -0.20 -12 -2.10 -2.15 -1.40 -4.55 -3.95 -5.55 -5.90 -2.10 -4.05 -2.20 -5.40 -2.20 -36.20 l0 -29.55 -2.60 -0.35 c-1.45 -0.15 -6.40 -0.30 -11 -0.30 l-8.40 0 0 30.70 c0 29.95 0.10 32.45 1.60 38.05 0.70 2.50 3.35 8.25 4.25 9.15 0.35 0.35 0.65 0.85 0.65 1.10 0 0.65 7.25 8 7.90 8 0.30 0 0.85 0.30 1.20 0.70 1.60 1.60 7.90 4.15 11.90 4.85 2.90 0.50 11.10 0.15 13.45 -0.60z m121.30 -0.05 c2.05 -0.55 3.85 -1.20 5.35 -1.95 0.50 -0.25 1.10 -0.45 1.40 -0.45 1.15 0 8.20 -5.20 11.10 -8.15 2.95 -3.05 6.90 -8.35 6.90 -9.30 0 -0.25 0.15 -0.55 0.40 -0.65 0.20 -0.05 0.90 -1.25 1.55 -2.65 1.90 -3.95 2.70 -6.15 3.45 -9 0.30 -1.10 0.75 -2.95 1.05 -4.05 0.30 -1.15 0.55 -5.95 0.55 -10.70 0 -4.75 -0.25 -9.55 -0.55 -10.70 -0.30 -1.10 -0.75 -2.95 -1.05 -4.05 -0.55 -2 -1.40 -4.20 -2.70 -6.95 -0.40 -0.80 -0.70 -1.75 -0.70 -2.15 0 -0.35 -0.15 -0.65 -0.35 -0.65 -0.25 0 -0.95 -1.15 -1.60 -2.50 -0.70 -1.40 -1.40 -2.50 -1.60 -2.50 -0.20 0 -0.55 -0.45 -0.70 -1.05 -0.75 -2.25 -11.45 -11.95 -13.20 -11.95 -0.30 0 -0.55 -0.20 -0.55 -0.50 0 -0.25 -0.30 -0.50 -0.65 -0.50 -0.35 0 -1.55 -0.45 -2.70 -1 -11.75 -5.65 -29.55 -3.05 -37.75 5.60 -0.85 0.95 -1.80 1.40 -2.85 1.40 l-1.55 0 0 -22 0 -22 -10.75 0 -10.75 0 0 63.50 0 63.50 10.55 0 10.60 0 -0.35 -4.50 -0.40 -4.50 2.05 0 c1.75 0 2.35 0.35 4.80 2.75 1.55 1.50 3.05 2.75 3.25 2.75 0.25 0 0.75 0.30 1.10 0.65 1.05 1 5.55 3 8.90 3.95 4.95 1.40 13.20 1.55 17.75 0.30z m98.35 0.15 c0.65 -0.25 2.15 -0.70 3.40 -1.05 2.75 -0.75 11 -4.55 11 -5.05 0 -0.20 0.45 -0.50 0.95 -0.70 1.50 -0.45 7.60 -6.55 10.30 -10.25 1.30 -1.80 3.10 -4.75 4.05 -6.60 l1.70 -3.40 -9.90 0 -9.90 0 -1.10 1.95 c-2.30 4.10 -7.55 7.70 -13.20 9 -5.50 1.30 -13.30 0.40 -18.30 -2.05 -6.45 -3.20 -11.45 -11.75 -11.75 -20.15 l-0.10 -3.50 33.15 -0.15 33.10 -0.10 0 -4.15 c0 -3.90 -0.90 -10.55 -1.95 -14.35 -0.25 -0.95 -0.65 -2.30 -0.80 -3 -0.70 -2.60 -4.50 -10.40 -6.50 -13.40 -1.15 -1.70 -5.70 -6.55 -7.80 -8.35 -10.55 -8.95 -27.65 -11.80 -41.20 -6.75 -1.75 0.65 -8.90 4.25 -9.45 4.75 -0.30 0.30 -1.35 1.10 -2.30 1.80 -7.25 5.40 -14.25 16.95 -16.45 27.20 -0.30 1.40 -0.75 3.55 -1.05 4.85 -1.35 6.20 -0.20 17.25 2.70 25.50 0.90 2.60 4.45 9.55 5.30 10.40 0.15 0.15 0.90 1.15 1.75 2.25 3.45 4.60 10.85 10.50 15.30 12.20 0.95 0.35 2.15 0.85 2.70 1.05 3 1.20 7.50 2.25 11.25 2.70 2.75 0.30 13.85 -0.15 15.10 -0.65z m-345.75 -21.30 c-0.15 -10.90 -0.15 -23.60 0 -28.25 l0.30 -8.50 2.35 0 c2.60 0 3.15 0.35 5.25 3.25 0.80 1.10 1.60 2.10 1.75 2.25 0.15 0.15 1.05 1.25 2 2.50 0.95 1.25 1.85 2.35 2 2.50 0.15 0.15 1.70 2.15 3.50 4.50 1.75 2.35 3.35 4.35 3.50 4.50 0.15 0.15 1.75 2.15 3.50 4.50 1.80 2.35 3.35 4.35 3.50 4.50 0.15 0.15 1.05 1.25 2 2.50 0.95 1.25 1.85 2.35 2 2.50 0.15 0.15 1.05 1.25 2 2.50 0.95 1.25 2 2.60 2.35 3 0.35 0.40 2.55 3.25 4.95 6.25 2.35 3.05 5 6.35 5.85 7.40 0.90 1.10 1.80 2.40 2.05 2.90 0.45 0.90 1.20 0.95 14.90 0.95 7.90 0 14.40 -0.10 14.40 -0.25 0 -0.30 -47.90 -64.20 -48.85 -65.15 -1.05 -1.10 -0.80 -4.20 0.50 -5.60 0.60 -0.70 1.90 -2.25 2.85 -3.50 0.95 -1.25 2 -2.55 2.40 -2.90 0.35 -0.40 1.25 -1.50 2 -2.50 0.75 -1.05 1.45 -1.95 1.60 -2.10 0.15 -0.15 1.10 -1.30 2.15 -2.60 1.05 -1.30 2.15 -2.65 2.50 -3 0.35 -0.35 1.40 -1.65 2.35 -2.90 0.95 -1.25 2.05 -2.60 2.50 -3 0.40 -0.40 1.35 -1.55 2.10 -2.60 0.75 -1 1.65 -2.10 2 -2.50 0.35 -0.35 1.50 -1.70 2.55 -3 1.05 -1.30 2.15 -2.65 2.50 -3 0.35 -0.35 2.50 -3 4.85 -5.90 2.30 -2.90 4.35 -5.35 4.50 -5.50 0.15 -0.15 1.05 -1.25 2 -2.50 0.95 -1.25 2.05 -2.60 2.50 -3 1.05 -1.05 4 -4.90 4 -5.20 0 -0.15 -6.30 -0.30 -14 -0.30 -7.90 0 -14 0.20 -14 0.45 0 0.35 -5.95 8.25 -8.90 11.80 -0.45 0.55 -1.65 2 -2.60 3.25 -0.95 1.25 -1.85 2.35 -2 2.50 -0.15 0.15 -1.70 2.15 -3.50 4.50 -1.75 2.35 -3.35 4.35 -3.50 4.50 -0.15 0.15 -0.85 1.05 -1.50 2 -0.65 0.95 -1.35 1.85 -1.50 2 -0.15 0.15 -1.75 2.15 -3.50 4.50 -1.75 2.35 -3.35 4.35 -3.50 4.50 -0.20 0.15 -2.45 3.05 -5 6.50 -2.60 3.45 -5.25 6.80 -5.85 7.50 -0.65 0.70 -1.30 1.65 -1.45 2.15 -0.20 0.65 -0.80 0.85 -2.55 0.85 l-2.30 0 0.35 -2.80 c0.15 -1.55 0.15 -14.35 0 -28.50 l-0.35 -25.70 -11.20 0 -11.15 0 0 63.50 0 63.50 11.60 0 11.55 0 -0.30 -19.75z m139.65 -134.85 c3.90 -0.75 6.60 -1.70 9.90 -3.35 3.10 -1.60 9.10 -5.80 9.75 -6.90 0.25 -0.35 1.25 -0.65 2.40 -0.65 l1.95 0 -0.30 4.75 -0.35 4.75 10.35 0 10.35 0 -0.15 -32.35 c-0.10 -22.60 -0.30 -32.80 -0.70 -33.65 -0.30 -0.70 -0.85 -2.15 -1.15 -3.25 -0.75 -2.45 -2.55 -6.25 -3.40 -7.15 -0.35 -0.35 -0.65 -0.85 -0.65 -1.10 0 -0.20 -1.75 -2.20 -3.85 -4.35 -6.40 -6.55 -10.75 -8.60 -22.35 -10.65 -4.10 -0.70 -8.30 -0.65 -13.85 0.25 -6.85 1.05 -8.40 1.50 -13.95 3.95 -4.25 1.80 -12.50 8.90 -13.30 11.40 -0.15 0.50 -0.45 0.90 -0.65 0.90 -0.55 0 -2.85 5.30 -4.05 9.35 -1.05 3.45 -0.75 3.65 5.10 3.65 2.85 0 7.35 0.15 10.05 0.35 4.55 0.30 4.85 0.25 4.85 -0.65 0 -3.10 4.70 -9.50 8 -11 3.35 -1.50 4.45 -1.70 10.30 -1.70 5.85 0 6.45 0.10 9.50 1.50 5.95 2.70 8.35 6.60 8.95 14.70 0.30 3.90 0.20 5 -0.30 5.35 -0.40 0.25 -3.15 0.45 -6.20 0.45 -5.20 0 -9.95 0.35 -21.50 1.55 -7.95 0.85 -14.50 2.20 -18 3.70 -2.65 1.15 -7.05 4.30 -8.15 5.80 -0.35 0.50 -0.90 1.20 -1.30 1.55 -0.65 0.65 -3.20 5.50 -4.20 7.90 -1.85 4.65 -2.30 12.55 -0.90 16.65 2.45 7.25 7.80 13.20 14.30 16 7.30 3.10 15.40 3.90 23.50 2.25z m-139.10 -29.15 l-0.15 -28.25 30.15 0 30.10 0 0 28.25 0 28.25 11.50 0 11.50 0 0 -64.25 0 -64.25 -11.50 0 -11.50 0 0 26 0 26 -30 0 c-23.65 0 -30 -0.15 -30.05 -0.60 0 -0.35 0 -12.05 0.05 -26 l0.05 -25.40 -11.75 0 -11.80 0 0 64.25 0 64.25 11.80 0 11.75 0 -0.15 -28.25z m225.60 3.40 c0.05 -25.20 0.10 -26.20 2.20 -32.20 2.05 -5.95 5.85 -10.60 10.45 -12.95 l3.10 -1.55 8.90 0.15 8.85 0.15 0 -10.60 0 -10.65 -5.15 0 c-8.85 0 -13.30 2.10 -20.80 9.70 -3.60 3.70 -4.40 4.30 -5.85 4.30 l-1.70 0 0 -4.60 c0 -2.55 -0.15 -5.50 -0.30 -6.50 l-0.35 -1.90 -10.40 0 -10.45 0 0 45.50 0 45.50 10.75 0 10.75 0 0 -24.35z m71.50 -21.15 l0 -45.50 -10.75 0 -10.75 0 0 45.50 0 45.50 10.75 0 10.75 0 0 -45.50z m-5.75 -60.25 c0.55 -0.25 1.10 -0.55 1.25 -0.70 0.15 -0.20 1.05 -0.85 2.05 -1.50 2.20 -1.50 4.35 -4.75 5.15 -7.90 1.50 -5.95 -3.20 -13.10 -10.20 -15.50 -2.60 -0.95 -4.65 -0.80 -7.70 0.55 -4.55 2.05 -7.30 5.35 -8.75 10.70 -1.65 6 4.90 14.35 11.95 15.20 1.45 0.20 4.80 -0.30 6.25 -0.85z"/>
  <path d="M318.10 560.90 l0.15 -53.15 1.35 -2.25 c2 -3.40 3.90 -4.90 13.40 -10.60 4.80 -2.90 10.30 -6.20 12.20 -7.40 1.90 -1.15 4.15 -2.50 5 -3 0.85 -0.45 3.15 -1.85 5.05 -3 1.95 -1.20 9.35 -5.70 16.50 -10.05 7.15 -4.30 15.95 -9.60 19.50 -11.80 18.75 -11.55 19.80 -12.15 21.25 -12.15 l1.50 0 0 51.40 c0 56.75 0.10 55.30 -3.15 59.35 -2.20 2.80 3.15 -0.55 -49.35 31.25 -8.95 5.40 -21.70 13.15 -28.35 17.15 -8.70 5.30 -12.50 7.35 -13.60 7.35 l-1.55 0 0.10 -53.10z"/>
  <path d="M241.50 596.95 c-10.25 -1 -17.85 -2.05 -25.25 -3.50 -30.45 -5.95 -53.20 -17.85 -59.80 -31.25 -1.70 -3.40 -1.70 -3.50 -1.90 -11.55 l-0.15 -8.15 1.85 0 c1.60 0 2.35 0.45 5.25 3.15 9.15 8.50 27.80 18 43.50 22.20 19.40 5.15 30.65 7 49.65 7.95 l5.85 0.30 0 10.70 0 10.70 -7.35 -0.05 c-4.10 -0.05 -9.30 -0.25 -11.65 -0.50z"/>
  <path d="M249.75 555.65 c-14.20 -0.60 -32.10 -3.45 -45 -7.25 -24.55 -7.15 -42.45 -18.60 -48.40 -30.90 -1.60 -3.20 -1.60 -3.35 -1.75 -12.10 l-0.15 -8.90 1.60 0 c1.35 0 2.25 0.70 6.45 5.15 7.25 7.65 15.05 12.85 27.40 18.30 7.65 3.40 17.85 6.80 27.35 9 1.40 0.35 3.30 0.80 4.25 1.05 6.40 1.55 21.25 3.40 31.40 3.85 l7.60 0.30 0.10 8.70 c0.05 4.75 0.10 9.60 0.15 10.80 l0 2.10 -3.75 0.05 c-2.05 0 -5.30 -0.05 -7.25 -0.15z"/>
  <path d="M769.45 629.80 c-8.15 -2.30 -13.60 -8.35 -15.95 -17.70 -1.70 -6.65 -1.30 -19.95 0.75 -25.85 2.70 -7.85 8.85 -14.05 16.05 -16.15 2.60 -0.75 10.80 -0.80 13.15 -0.05 8.25 2.60 13.85 8.65 16.40 17.70 1.20 4.20 1.15 18.70 0 23 -2.65 9.50 -9 16.70 -16.75 18.90 -2.85 0.80 -11 0.90 -13.65 0.15z"/>
  <path d="M856.50 589.10 c0 -2.40 2.05 -8.10 4.15 -11.30 2.25 -3.50 4.95 -6.05 8.25 -7.65 2.55 -1.25 3.50 -1.40 8.85 -1.55 7.80 -0.25 10.90 0.75 15.40 4.85 4.05 3.70 7.35 10.65 7.35 15.40 l0 2.15 -22 0 -22 0 0 -1.90z"/>
  <path d="M674.20 474.80 c-3.40 -0.90 -6.45 -3.15 -7.65 -5.60 -1.45 -3.10 -1.50 -8.90 0 -11.55 2.90 -5.30 7.25 -7.15 19.95 -8.60 2.60 -0.30 7.55 -0.90 10.90 -1.30 3.40 -0.40 6.60 -0.75 7.15 -0.75 0.90 0 0.95 0.40 0.95 5.50 0 5.25 -0.75 10 -1.60 10 -0.20 0 -0.40 0.35 -0.40 0.75 0 0.45 -0.50 1.50 -1.10 2.40 -3.40 4.80 -8.10 7.90 -14.05 9.15 -3.70 0.80 -11.25 0.80 -14.15 0z"/>
 </g>
 <g fill="#1871d8">
  <path d="M288 581.65 c0 -97.15 -0.10 -92 2.50 -97.15 0.60 -1.20 2.15 -3.25 3.40 -4.60 2.50 -2.65 2.80 -2.90 29.60 -19.15 21 -12.80 48.30 -29.45 61 -37.25 13.65 -8.35 35.35 -21.60 39.50 -24.10 5.25 -3.15 7.80 -4.40 9 -4.40 2.65 0 6.55 3.55 8.85 8 l1.40 2.75 0 82 0 82 -1.10 2.85 c-1.90 5.20 -4.60 8.90 -8.70 12 -0.95 0.75 -4.60 3.10 -8.20 5.25 -3.55 2.20 -11.45 7 -17.50 10.75 -6.05 3.75 -17.95 11.05 -26.50 16.30 -8.50 5.20 -17.95 11 -21 12.90 -12.40 7.60 -20.60 12.65 -28.55 17.45 -6.40 3.85 -16.85 10.25 -22.95 14.05 -14.50 8.95 -17.75 10.70 -20 10.70 -0.65 0 -0.75 -10.65 -0.75 -90.35z m44.75 22.85 c83.35 -50.50 74.35 -44.85 76.60 -47.75 3.20 -4.05 3.15 -2.75 3.15 -57.85 l0 -49.90 -6.35 3.90 c-3.55 2.15 -9.45 5.80 -13.15 8.10 -3.70 2.25 -12.60 7.65 -19.75 11.95 -7.15 4.35 -14.55 8.85 -16.50 10.05 -1.90 1.15 -4.20 2.55 -5.05 3 -0.85 0.50 -3.10 1.85 -5 3 -1.90 1.20 -7.40 4.50 -12.20 7.40 -9.50 5.70 -11.40 7.20 -13.40 10.60 l-1.35 2.25 -0.15 51.70 -0.10 51.70 1.10 -0.75 c0.65 -0.40 6.10 -3.75 12.15 -7.40z"/>
  <path d="M269 666.05 c-7.35 -4.50 -10.95 -6.70 -34.50 -20.95 -30.80 -18.65 -47.40 -28.75 -58.25 -35.35 -5.80 -3.55 -16.45 -10 -23.75 -14.40 -7.30 -4.40 -14.65 -8.95 -16.30 -10.15 -3.80 -2.70 -6.80 -6 -8.45 -9.45 -2.90 -5.85 -2.75 -1.25 -2.75 -87.70 0 -70.90 0.10 -80 0.80 -82.70 2 -7.70 5.40 -11.40 16.95 -18.20 11.50 -6.85 42.35 -25.35 79 -47.40 58.50 -35.25 52.20 -31.90 61 -31.95 7.70 -0.05 8.95 0.45 24.35 9.60 6.40 3.85 16.70 9.95 22.90 13.60 6.20 3.65 15.30 9.05 20.25 12 4.95 2.90 13.75 8.10 19.50 11.50 12.95 7.60 36.70 21.65 39.75 23.50 1.25 0.75 4.45 2.65 7.15 4.25 4.30 2.55 5.75 3.75 4.40 3.75 -0.40 0 -4.35 2.35 -21.80 13.05 -4.40 2.65 -12.25 7.50 -17.50 10.65 -5.20 3.20 -13.30 8.15 -18 11.05 -10.10 6.20 -18.35 11.20 -30.50 18.60 -4.95 3 -12.90 7.90 -17.65 10.80 -10.15 6.30 -11.40 6.85 -14.80 6.85 -5.40 -0.05 -9.75 -4 -10.20 -9.25 -0.25 -3.20 0.80 -6.50 2.55 -8.10 0.60 -0.55 9.65 -6.15 20.10 -12.40 10.45 -6.30 24.20 -14.55 30.50 -18.40 6.35 -3.85 13.80 -8.40 16.60 -10.05 2.80 -1.70 5.15 -3.20 5.15 -3.35 0 -0.15 -3 -2.05 -6.60 -4.20 -8.75 -5.15 -36.10 -21.45 -60.75 -36.15 -11.05 -6.60 -10.25 -6.30 -15.70 -6.30 l-4.75 -0.05 -9.50 5.70 c-42.10 25.45 -62.75 37.90 -64.55 38.95 -1.20 0.65 -2.15 1.35 -2.15 1.60 0 0.35 32.45 19.90 41.40 24.90 l3.60 2.05 3.65 -3.55 c4 -3.90 8.40 -7.40 9.25 -7.40 0.35 0 0.60 0.50 0.60 1.10 0 0.60 0.20 1.75 0.50 2.60 4.80 15.50 10.30 32.45 11 34.05 0.75 1.80 6.95 20.95 6.85 21.10 -0.10 0.05 -3.95 -0.10 -8.65 -0.35 -4.65 -0.25 -13.75 -0.70 -20.20 -1 -6.45 -0.30 -15.65 -0.75 -20.40 -1 -4.75 -0.30 -10.30 -0.50 -12.35 -0.50 -3.40 0 -3.75 -0.10 -3.75 -1 0 -0.55 0.20 -1 0.40 -1 0.25 0 0.70 -0.55 1 -1.30 0.35 -0.70 2.60 -4.25 5.05 -7.90 3.30 -4.95 4.30 -6.85 3.90 -7.25 -0.30 -0.30 -0.75 -0.55 -0.95 -0.55 -0.25 0 -1.85 -0.90 -3.55 -1.95 -1.70 -1.05 -6.60 -3.95 -10.85 -6.40 -12.50 -7.25 -25.65 -14.90 -34.70 -20.30 l-8.50 -5.05 -2.15 2.45 c-2.95 3.35 -5.50 8.80 -6.10 12.85 -0.65 4.80 -0.70 34.50 0 38.15 2.55 13.70 19.45 27.20 44.20 35.35 14.95 4.90 38.95 8.90 53.50 8.90 l4.75 0 0.05 -13.10 c0.10 -15.25 0.10 -14.70 0.55 -15.20 0.20 -0.20 2.15 0.50 4.25 1.55 5.20 2.55 9.55 6.90 11.05 10.90 l1.10 2.90 0 85.45 c0 47.05 -0.15 85.50 -0.35 85.45 -0.25 0 -3.20 -1.75 -6.65 -3.90z m-10 -79.25 l0 -9.20 -5.85 -0.30 c-19 -0.95 -30.25 -2.80 -49.65 -7.95 -15.70 -4.20 -34.35 -13.70 -43.50 -22.20 -1.85 -1.75 -3.55 -3.15 -3.75 -3.15 -0.20 0 -0.30 3 -0.15 6.65 0.15 6.35 0.25 6.80 1.85 10.05 6.60 13.40 29.40 25.30 59.80 31.25 11.70 2.30 25.75 3.85 35.40 4 l5.85 0.05 0 -9.20z m0.20 -33.15 c-0.05 -0.35 -0.10 -4.60 -0.10 -9.45 -0.10 -7.15 -0.25 -8.75 -0.75 -8.55 -0.75 0.30 -15.90 -0.80 -22.90 -1.65 -4.90 -0.55 -12.25 -1.75 -15.30 -2.50 -1.20 -0.25 -3.20 -0.75 -4.50 -1.05 -9.35 -2.20 -19.60 -5.60 -27.25 -9 -12.40 -5.50 -20.15 -10.65 -27.50 -18.45 l-5 -5.25 0.20 7.50 c0.15 7.25 0.20 7.60 1.75 10.75 7.30 15.10 31.20 28 64.25 34.70 6.85 1.40 21.45 3.15 29.15 3.50 6.05 0.25 8 0.10 7.95 -0.55z"/>
 </g>
 <g fill="#04090b">
  <path d="M654.50 649.05 c-4 -0.70 -10.30 -3.25 -11.90 -4.85 -0.35 -0.40 -0.90 -0.70 -1.20 -0.70 -0.65 0 -7.90 -7.35 -7.90 -8 0 -0.25 -0.30 -0.75 -0.65 -1.10 -0.90 -0.90 -3.55 -6.65 -4.25 -9.15 -1.50 -5.60 -1.60 -8.10 -1.60 -39.55 l0 -32.25 12.50 0.10 12.50 0.10 0 29.80 c0 31.10 0.10 32.40 2.20 36.45 1 1.95 3.40 4.50 5.55 5.90 2.65 1.80 5.30 2.30 10.55 2.10 4.30 -0.15 5.30 -0.35 7.70 -1.60 4.45 -2.35 7.45 -6.35 9.15 -12.25 0.35 -1.10 0.65 -12.95 0.80 -31.05 l0.30 -29.25 12.40 -0.05 12.35 -0.05 0 46.65 0 46.70 -12.10 -0.10 -12.15 -0.15 0.05 -4.60 c0.05 -2.55 -0.05 -4.65 -0.25 -4.65 -0.15 0 -1.55 1.20 -3.05 2.65 -4.45 4.20 -7.25 5.80 -14.50 8.30 -2.15 0.75 -13.40 1.15 -16.50 0.60z"/>
  <path d="M775.75 649 c-5.05 -0.80 -11.45 -3.20 -13.15 -4.85 -0.35 -0.35 -0.85 -0.65 -1.10 -0.65 -0.20 0 -1.70 -1.25 -3.25 -2.75 -1.55 -1.50 -2.95 -2.75 -3.15 -2.75 -0.20 0 -0.25 2 -0.20 4.50 l0.20 4.50 -12.05 0 -12.05 0 0 -65 0 -65 12.25 0 12.25 0 0 22.05 0 22.05 1.40 -1.45 c3.10 -3.30 8.05 -6 14.10 -7.65 5.25 -1.40 15.45 -1.40 20.80 0 2.10 0.60 4.75 1.50 5.85 2 1.15 0.55 2.35 1 2.70 1 0.35 0 0.65 0.25 0.65 0.50 0 0.30 0.25 0.50 0.55 0.50 1.75 0 12.45 9.70 13.20 11.95 0.15 0.60 0.50 1.05 0.70 1.05 0.20 0 0.90 1.10 1.60 2.50 0.65 1.35 1.35 2.50 1.60 2.50 0.20 0 0.35 0.30 0.35 0.65 0 0.40 0.30 1.35 0.70 2.15 1.30 2.75 2.15 4.95 2.70 6.95 0.30 1.10 0.75 2.95 1.05 4.05 0.30 1.15 0.55 6.55 0.55 12.20 0 5.65 -0.25 11.05 -0.55 12.20 -0.30 1.10 -0.75 2.95 -1.05 4.05 -0.75 2.85 -1.55 5.05 -3.45 9 -0.65 1.40 -1.35 2.60 -1.55 2.65 -0.25 0.10 -0.40 0.40 -0.40 0.65 0 0.95 -3.95 6.25 -6.90 9.30 -2.90 2.95 -9.95 8.15 -11.10 8.15 -0.30 0 -0.90 0.20 -1.40 0.45 -1.50 0.75 -3.30 1.40 -5.50 2 -2.75 0.75 -13.10 1.10 -16.35 0.55z m5.85 -20.90 c7.70 -2.10 14.15 -9.40 16.70 -18.85 1.15 -4.25 1.20 -15.90 0.05 -20 -2.55 -9.05 -8.10 -15.10 -16.40 -17.70 -2.35 -0.75 -7.55 -0.70 -10.15 0.05 -5.85 1.70 -11.60 6.60 -14.25 12.05 -2.85 5.95 -3.50 9.20 -3.50 16.85 -0.05 10.75 2.55 17.90 8.55 23.50 1.45 1.35 5.75 3.55 8.35 4.30 2.55 0.70 7.75 0.65 10.65 -0.20z"/>
  <path d="M872.50 649.20 c-3.80 -0.45 -8.25 -1.50 -11.25 -2.70 -0.55 -0.20 -1.75 -0.70 -2.70 -1.05 -4.45 -1.70 -11.85 -7.60 -15.30 -12.20 -0.85 -1.10 -1.60 -2.10 -1.75 -2.25 -1.55 -1.55 -5.35 -9.95 -6.60 -14.50 -1.85 -6.90 -2.55 -19.15 -1.40 -24.40 0.30 -1.30 0.75 -3.45 1.05 -4.85 2.20 -10.25 9.20 -21.80 16.45 -27.20 0.95 -0.70 2 -1.50 2.30 -1.80 0.55 -0.50 7.70 -4.10 9.45 -4.75 8.85 -3.30 22.30 -3.40 31.50 -0.25 4.55 1.55 9.50 4.25 12.70 7 2.10 1.80 6.65 6.65 7.80 8.35 2 3 5.80 10.80 6.50 13.40 0.15 0.70 0.55 2.05 0.80 3 1.80 6.70 2.75 21.50 1.35 21.50 -0.35 0 -15.25 0.05 -33.15 0.15 l-32.50 0.10 0.15 2 c0.20 2.75 1.75 7.50 3.40 10.40 4.50 8.10 14.50 12.45 23.60 10.30 5.65 -1.30 10.90 -4.90 13.20 -9 l1.10 -1.95 11.90 0 c6.55 0 11.90 0.20 11.90 0.45 0 1.05 -4.60 9.60 -6.75 12.55 -2.70 3.70 -8.80 9.80 -10.30 10.25 -0.50 0.20 -0.95 0.50 -0.95 0.70 0 0.50 -8.25 4.30 -11 5.05 -1.25 0.35 -2.80 0.80 -3.45 1.10 -1.30 0.50 -15.05 0.95 -18.05 0.60z m26.50 -60.35 c0 -1.60 -2.25 -7.30 -3.80 -9.60 -4.45 -6.70 -9.75 -9.50 -17.50 -9.20 -3.60 0.15 -4.95 0.45 -7.30 1.60 -5 2.45 -8.75 7.05 -11.15 13.65 -0.70 1.90 -1.25 3.60 -1.25 3.80 0 0.25 9.25 0.40 20.50 0.40 16.75 0 20.50 -0.10 20.50 -0.65z"/>
  <path d="M519 582 l0 -65 12.70 0.10 12.70 0.15 0.20 28.35 c0.10 21.45 0.30 28.40 0.75 28.40 0.30 0 0.70 -0.40 0.85 -0.85 0.15 -0.50 0.80 -1.45 1.45 -2.15 0.60 -0.70 3.25 -4.05 5.85 -7.50 2.55 -3.45 4.80 -6.35 5 -6.50 0.15 -0.15 1.75 -2.15 3.50 -4.50 1.75 -2.35 3.35 -4.35 3.50 -4.50 0.15 -0.15 0.85 -1.05 1.50 -2 0.65 -0.95 1.35 -1.85 1.50 -2 0.15 -0.15 1.75 -2.15 3.50 -4.50 1.80 -2.35 3.35 -4.35 3.50 -4.50 0.15 -0.15 1.05 -1.25 2 -2.50 0.95 -1.25 2.15 -2.70 2.60 -3.25 2.95 -3.55 8.90 -11.45 8.90 -11.80 0 -0.25 7.20 -0.45 16.75 -0.45 9.20 0 16.75 0.10 16.75 0.25 0 0.30 -3.85 5.10 -6.15 7.75 -0.60 0.70 -1.90 2.30 -2.85 3.50 -0.95 1.25 -1.85 2.35 -2 2.50 -0.15 0.15 -2.20 2.60 -4.50 5.50 -2.35 2.90 -4.50 5.55 -4.85 5.90 -0.35 0.35 -1.45 1.70 -2.50 3 -1.05 1.30 -2.20 2.65 -2.55 3 -0.35 0.40 -1.25 1.50 -2 2.50 -0.75 1.05 -1.70 2.20 -2.10 2.60 -0.45 0.40 -1.55 1.75 -2.50 3 -0.95 1.25 -2 2.55 -2.35 2.90 -0.35 0.35 -1.45 1.70 -2.50 3 -1.05 1.30 -2 2.45 -2.15 2.60 -0.15 0.15 -0.85 1.05 -1.60 2.10 -0.75 1 -1.65 2.10 -2 2.50 -0.40 0.35 -1.45 1.65 -2.40 2.90 -0.95 1.25 -2.25 2.80 -2.85 3.50 -1.35 1.45 -1.40 1.70 -0.50 2.60 1.15 1.10 50.40 66.95 50.70 67.70 0.20 0.60 -2.20 0.70 -16.70 0.70 -16.20 0 -17 -0.05 -17.45 -0.95 -0.25 -0.50 -1.15 -1.80 -2.05 -2.90 -0.85 -1.05 -3.50 -4.35 -5.85 -7.40 -2.40 -3 -4.60 -5.85 -4.95 -6.25 -0.35 -0.40 -1.40 -1.75 -2.35 -3 -0.95 -1.25 -1.85 -2.35 -2 -2.50 -0.15 -0.15 -1.05 -1.25 -2 -2.50 -0.95 -1.25 -1.85 -2.35 -2 -2.50 -0.15 -0.15 -1.70 -2.15 -3.50 -4.50 -1.75 -2.35 -3.35 -4.35 -3.50 -4.50 -0.15 -0.15 -1.75 -2.15 -3.50 -4.50 -1.80 -2.35 -3.35 -4.35 -3.50 -4.50 -0.15 -0.15 -1.05 -1.25 -2 -2.50 -0.95 -1.25 -2.15 -2.70 -2.65 -3.25 -0.50 -0.55 -1.35 -1.75 -1.90 -2.65 -1 -1.50 -3.10 -2.60 -3.85 -1.90 -0.15 0.20 -0.25 12.95 -0.20 28.30 l0.10 28 -13 0 -13 0 0 -65z"/>
  <path d="M288.15 561.50 c0 -1.50 0.10 -2.15 0.20 -1.35 0.10 0.75 0.10 1.95 0 2.75 -0.10 0.75 -0.20 0.10 -0.20 -1.40z"/>
  <path d="M288.15 540.75 c0 -2.20 0.10 -3.05 0.20 -1.85 0.10 1.15 0.10 2.95 0 4 -0.10 1 -0.20 0.05 -0.20 -2.15z"/>
  <path d="M288.10 534.50 c0 -0.95 0.10 -1.35 0.25 -0.85 0.10 0.45 0.10 1.25 0 1.75 -0.15 0.45 -0.25 0.05 -0.25 -0.90z"/>
  <path d="M670.25 493.20 c-13.55 -1.25 -22.70 -7.80 -26.60 -19.05 -1.50 -4.45 -1 -14.85 0.95 -19.65 1.05 -2.50 3.55 -7.25 4.20 -7.90 0.40 -0.35 0.95 -1.05 1.30 -1.55 1.10 -1.50 5.50 -4.65 8.15 -5.80 3.55 -1.55 9.90 -2.85 18 -3.70 11.55 -1.20 16.30 -1.55 21.35 -1.55 2.90 0 5.65 -0.10 6.05 -0.25 1.10 -0.45 0.50 -6.90 -0.95 -10.05 -1.60 -3.55 -3.60 -5.50 -7.40 -7.20 -2.90 -1.35 -3.85 -1.50 -8 -1.50 -4.45 0 -5.50 0.20 -8.80 1.70 -3.45 1.55 -8 7.95 -8 11.20 0 1.10 -0.15 1.15 -1.85 0.90 -1.05 -0.15 -5.95 -0.40 -10.90 -0.55 -11.85 -0.40 -11.30 -0.25 -11 -2.90 0.30 -2.15 1.10 -5.35 1.75 -7.10 1.10 -2.95 2.70 -6.25 3.05 -6.25 0.20 0 0.50 -0.40 0.65 -0.90 0.80 -2.50 9 -9.50 13.45 -11.50 5 -2.20 7.05 -2.80 13.80 -3.85 12 -1.90 24.45 0 32.80 4.95 2.40 1.40 10.25 8.95 10.25 9.80 0 0.25 0.30 0.75 0.65 1.10 0.85 0.90 2.65 4.70 3.40 7.15 0.30 1.10 0.85 2.55 1.15 3.25 0.40 0.85 0.60 11.45 0.70 35.15 l0.15 33.85 -11.80 0 -11.80 0 0.15 -4.75 c0.15 -4.55 -0.10 -5.55 -0.95 -4.10 -0.70 1.20 -6.75 5.40 -10.15 7.05 -3.10 1.55 -4.55 2.05 -9.25 3.20 -2.25 0.60 -11.45 1.10 -14.50 0.80z m16.60 -19.90 c5.95 -1.25 10.65 -4.35 14.05 -9.15 0.60 -0.90 1.10 -1.95 1.10 -2.40 0 -0.40 0.20 -0.75 0.40 -0.75 0.80 0 1.70 -5.20 1.50 -8.75 l-0.15 -3.55 -5.50 0.65 c-12.60 1.45 -15.15 1.75 -18.40 2.40 -8 1.55 -12.85 5.90 -12.85 11.50 0 7.95 8.85 12.40 19.85 10.05z"/>
  <path d="M519.10 425.75 l0.15 -65.75 13 -0.05 13 0 0.10 25.40 c0.10 13.95 0.15 25.70 0.15 26.05 0 0.45 6.05 0.60 28.50 0.60 l28.50 0 0.10 -26.05 0.15 -26 12.75 0 12.75 0 0.15 65.75 0.10 65.80 -13 0 -13 0 0 -28.25 0 -28.25 -28.60 0 -28.65 0 0.15 28.25 0.10 28.25 -13.25 0 -13.25 0 0.10 -65.75z"/>
  <path d="M746.40 444 l0.10 -47 12.15 0.10 12.10 0.15 0.15 6 c0.10 3.30 0.20 6.20 0.25 6.40 0.10 0.25 2.05 -1.50 4.35 -3.90 7.90 -8.05 11.80 -9.75 22.35 -9.75 l6.65 0 0 12.55 0 12.55 -1.35 -0.35 c-0.80 -0.20 -4.75 -0.50 -8.85 -0.60 l-7.50 -0.20 -3.15 1.55 c-4.60 2.35 -8.40 7 -10.45 12.95 -2.10 6 -2.15 7 -2.20 32.20 l0 24.35 -12.35 0 -12.40 0 0.15 -47z"/>
  <path d="M818 444 l0 -47 12.25 0 12.25 0 0 46.20 c0 25.40 0.15 46.55 0.30 47 0.30 0.70 -1 0.80 -12.25 0.80 l-12.55 0 0 -47z"/>
  <path d="M827.50 386.20 c-5.55 -1 -10.25 -5.40 -11.90 -11 -1.45 -5 0.15 -10.95 4 -14.80 4.90 -4.90 13.05 -5.85 18.65 -2.20 4 2.60 6 5.50 7.30 10.45 1.15 4.60 -1.55 11.75 -5.45 14.35 -1 0.70 -1.95 1.35 -2.10 1.50 -1.10 1.15 -7.60 2.20 -10.50 1.70z"/>
 </g>
</svg>